<?xml version="1.0" encoding="UTF-8" standalone="no"?>
<!DOCTYPE svg PUBLIC "-//W3C//DTD SVG 1.1//EN"
 "http://www.w3.org/Graphics/SVG/1.1/DTD/svg11.dtd">
<!-- Generated by graphviz version 2.40.1 (20161225.0304)
 -->
<!-- Title: dependencies Pages: 1 -->
<svg width="1765pt" height="284pt"
 viewBox="0.00 0.00 1765.00 284.00" xmlns="http://www.w3.org/2000/svg" xmlns:xlink="http://www.w3.org/1999/xlink">
<g id="graph0" class="graph" transform="scale(1 1) rotate(0) translate(4 280)">
<title>dependencies</title>
<polygon fill="#ffffff" stroke="transparent" points="-4,4 -4,-280 1761,-280 1761,4 -4,4"/>
<text text-anchor="start" x="857.5091" y="-42.4" font-family="sans-serif" font-weight="bold" font-size="14.00" fill="#000000">Legend</text>
<polygon fill="#ffffb3" stroke="transparent" points="644.5,-10 644.5,-30 664.5,-30 664.5,-10 644.5,-10"/>
<text text-anchor="start" x="668.129" y="-15.4" font-family="sans-serif" font-size="14.00" fill="#000000"> &#160;Declarations</text>
<polygon fill="#8dd3c7" stroke="transparent" points="757.5,-10 757.5,-30 777.5,-30 777.5,-10 757.5,-10"/>
<text text-anchor="start" x="781.2251" y="-15.4" font-family="sans-serif" font-size="14.00" fill="#000000"> &#160;Module</text>
<polygon fill="#80b1d3" stroke="transparent" points="843.5,-10 843.5,-30 863.5,-30 863.5,-10 843.5,-10"/>
<text text-anchor="start" x="867.2812" y="-15.4" font-family="sans-serif" font-size="14.00" fill="#000000"> &#160;Bootstrap</text>
<polygon fill="#fdb462" stroke="transparent" points="940.5,-10 940.5,-30 960.5,-30 960.5,-10 940.5,-10"/>
<text text-anchor="start" x="964.1732" y="-15.4" font-family="sans-serif" font-size="14.00" fill="#000000"> &#160;Providers</text>
<polygon fill="#fb8072" stroke="transparent" points="1036.5,-10 1036.5,-30 1056.5,-30 1056.5,-10 1036.5,-10"/>
<text text-anchor="start" x="1060.2258" y="-15.4" font-family="sans-serif" font-size="14.00" fill="#000000"> &#160;Exports</text>
<g id="clust1" class="cluster">
<title>cluster_AppModule</title>
<polygon fill="none" stroke="#000000" stroke-dasharray="1,5" points="8,-70 8,-268 1749,-268 1749,-70 8,-70"/>
</g>
<g id="clust2" class="cluster">
<title>cluster_AppModule_declarations</title>
<polygon fill="none" stroke="#000000" points="293,-78 293,-130 1741,-130 1741,-78 293,-78"/>
</g>
<g id="clust13" class="cluster">
<title>cluster_AppModule_imports</title>
<polygon fill="none" stroke="#000000" points="16,-78 16,-130 285,-130 285,-78 16,-78"/>
</g>
<g id="clust15" class="cluster">
<title>cluster_AppModule_bootstrap</title>
<polygon fill="none" stroke="#000000" points="861,-208 861,-260 985,-260 985,-208 861,-208"/>
</g>
<!-- AboutComponent -->
<g id="node1" class="node">
<title>AboutComponent</title>
<polygon fill="#ffffb3" stroke="#000000" points="1733.3301,-122 1616.6699,-122 1616.6699,-86 1733.3301,-86 1733.3301,-122"/>
<text text-anchor="middle" x="1675" y="-99.8" font-family="Times,serif" font-size="14.00" fill="#000000">AboutComponent</text>
</g>
<!-- AppModule -->
<g id="node11" class="node">
<title>AppModule</title>
<polygon fill="#8dd3c7" stroke="#000000" points="964.6571,-187 961.6571,-191 940.6571,-191 937.6571,-187 881.3429,-187 881.3429,-151 964.6571,-151 964.6571,-187"/>
<text text-anchor="middle" x="923" y="-164.8" font-family="Times,serif" font-size="14.00" fill="#000000">AppModule</text>
</g>
<!-- AboutComponent&#45;&gt;AppModule -->
<g id="edge1" class="edge">
<title>AboutComponent&#45;&gt;AppModule</title>
<path fill="none" stroke="#000000" d="M1675,-122.2479C1675,-145.0179 1675,-181 1675,-181 1675,-181 974.7717,-181 974.7717,-181"/>
<polygon fill="#000000" stroke="#000000" points="974.7717,-177.5001 964.7717,-181 974.7716,-184.5001 974.7717,-177.5001"/>
</g>
<!-- AppComponent -->
<g id="node2" class="node">
<title>AppComponent</title>
<polygon fill="#ffffb3" stroke="#000000" points="1598.9399,-122 1493.0601,-122 1493.0601,-86 1598.9399,-86 1598.9399,-122"/>
<text text-anchor="middle" x="1546" y="-99.8" font-family="Times,serif" font-size="14.00" fill="#000000">AppComponent</text>
</g>
<!-- AppComponent&#45;&gt;AppModule -->
<g id="edge2" class="edge">
<title>AppComponent&#45;&gt;AppModule</title>
<path fill="none" stroke="#000000" d="M1546,-122.2843C1546,-143.3211 1546,-175 1546,-175 1546,-175 974.8442,-175 974.8442,-175"/>
<polygon fill="#000000" stroke="#000000" points="974.8442,-171.5001 964.8442,-175 974.8441,-178.5001 974.8442,-171.5001"/>
</g>
<!-- CityComponent -->
<g id="node3" class="node">
<title>CityComponent</title>
<polygon fill="#ffffb3" stroke="#000000" points="1475.9512,-122 1370.0488,-122 1370.0488,-86 1475.9512,-86 1475.9512,-122"/>
<text text-anchor="middle" x="1423" y="-99.8" font-family="Times,serif" font-size="14.00" fill="#000000">CityComponent</text>
</g>
<!-- CityComponent&#45;&gt;AppModule -->
<g id="edge3" class="edge">
<title>CityComponent&#45;&gt;AppModule</title>
<path fill="none" stroke="#000000" d="M1423,-122.1061C1423,-141.3391 1423,-169 1423,-169 1423,-169 974.7697,-169 974.7697,-169"/>
<polygon fill="#000000" stroke="#000000" points="974.7698,-165.5001 964.7697,-169 974.7697,-172.5001 974.7698,-165.5001"/>
</g>
<!-- GraphsComponent -->
<g id="node4" class="node">
<title>GraphsComponent</title>
<polygon fill="#ffffb3" stroke="#000000" points="1351.759,-122 1230.241,-122 1230.241,-86 1351.759,-86 1351.759,-122"/>
<text text-anchor="middle" x="1291" y="-99.8" font-family="Times,serif" font-size="14.00" fill="#000000">GraphsComponent</text>
</g>
<!-- GraphsComponent&#45;&gt;AppModule -->
<g id="edge4" class="edge">
<title>GraphsComponent&#45;&gt;AppModule</title>
<path fill="none" stroke="#000000" d="M1291,-122.0225C1291,-139.3734 1291,-163 1291,-163 1291,-163 974.856,-163 974.856,-163"/>
<polygon fill="#000000" stroke="#000000" points="974.856,-159.5001 964.856,-163 974.856,-166.5001 974.856,-159.5001"/>
</g>
<!-- InitialComponent -->
<g id="node5" class="node">
<title>InitialComponent</title>
<polygon fill="#ffffb3" stroke="#000000" points="1212.2702,-122 1097.7298,-122 1097.7298,-86 1212.2702,-86 1212.2702,-122"/>
<text text-anchor="middle" x="1155" y="-99.8" font-family="Times,serif" font-size="14.00" fill="#000000">InitialComponent</text>
</g>
<!-- InitialComponent&#45;&gt;AppModule -->
<g id="edge5" class="edge">
<title>InitialComponent&#45;&gt;AppModule</title>
<path fill="none" stroke="#000000" d="M1155,-122.2396C1155,-137.5706 1155,-157 1155,-157 1155,-157 974.7449,-157 974.7449,-157"/>
<polygon fill="#000000" stroke="#000000" points="974.7449,-153.5001 964.7449,-157 974.7449,-160.5001 974.7449,-153.5001"/>
</g>
<!-- InterceptorComponent -->
<g id="node6" class="node">
<title>InterceptorComponent</title>
<polygon fill="#ffffb3" stroke="#000000" points="1079.2394,-122 936.7606,-122 936.7606,-86 1079.2394,-86 1079.2394,-122"/>
<text text-anchor="middle" x="1008" y="-99.8" font-family="Times,serif" font-size="14.00" fill="#000000">InterceptorComponent</text>
</g>
<!-- InterceptorComponent&#45;&gt;AppModule -->
<g id="edge6" class="edge">
<title>InterceptorComponent&#45;&gt;AppModule</title>
<path fill="none" stroke="#000000" d="M950.7293,-122.1061C950.7293,-122.1061 950.7293,-140.991 950.7293,-140.991"/>
<polygon fill="#000000" stroke="#000000" points="947.2294,-140.9909 950.7293,-150.991 954.2294,-140.991 947.2294,-140.9909"/>
</g>
<!-- LogginDialogComponent -->
<g id="node7" class="node">
<title>LogginDialogComponent</title>
<polygon fill="#ffffb3" stroke="#000000" points="918.878,-122 759.122,-122 759.122,-86 918.878,-86 918.878,-122"/>
<text text-anchor="middle" x="839" y="-99.8" font-family="Times,serif" font-size="14.00" fill="#000000">LogginDialogComponent</text>
</g>
<!-- LogginDialogComponent&#45;&gt;AppModule -->
<g id="edge7" class="edge">
<title>LogginDialogComponent&#45;&gt;AppModule</title>
<path fill="none" stroke="#000000" d="M900.0554,-122.1061C900.0554,-122.1061 900.0554,-140.991 900.0554,-140.991"/>
<polygon fill="#000000" stroke="#000000" points="896.5555,-140.9909 900.0554,-150.991 903.5555,-140.991 896.5555,-140.9909"/>
</g>
<!-- NavigationComponent -->
<g id="node8" class="node">
<title>NavigationComponent</title>
<polygon fill="#ffffb3" stroke="#000000" points="740.5407,-122 597.4593,-122 597.4593,-86 740.5407,-86 740.5407,-122"/>
<text text-anchor="middle" x="669" y="-99.8" font-family="Times,serif" font-size="14.00" fill="#000000">NavigationComponent</text>
</g>
<!-- NavigationComponent&#45;&gt;AppModule -->
<g id="edge8" class="edge">
<title>NavigationComponent&#45;&gt;AppModule</title>
<path fill="none" stroke="#000000" d="M669,-122.2396C669,-137.5706 669,-157 669,-157 669,-157 871.3415,-157 871.3415,-157"/>
<polygon fill="#000000" stroke="#000000" points="871.3415,-160.5001 881.3415,-157 871.3415,-153.5001 871.3415,-160.5001"/>
</g>
<!-- NewUserComponent -->
<g id="node9" class="node">
<title>NewUserComponent</title>
<polygon fill="#ffffb3" stroke="#000000" points="579.1867,-122 444.8133,-122 444.8133,-86 579.1867,-86 579.1867,-122"/>
<text text-anchor="middle" x="512" y="-99.8" font-family="Times,serif" font-size="14.00" fill="#000000">NewUserComponent</text>
</g>
<!-- NewUserComponent&#45;&gt;AppModule -->
<g id="edge9" class="edge">
<title>NewUserComponent&#45;&gt;AppModule</title>
<path fill="none" stroke="#000000" d="M512,-122.0225C512,-139.3734 512,-163 512,-163 512,-163 871.3293,-163 871.3293,-163"/>
<polygon fill="#000000" stroke="#000000" points="871.3294,-166.5001 881.3293,-163 871.3293,-159.5001 871.3294,-166.5001"/>
</g>
<!-- SettingsComponent -->
<g id="node10" class="node">
<title>SettingsComponent</title>
<polygon fill="#ffffb3" stroke="#000000" points="427.4468,-122 300.5532,-122 300.5532,-86 427.4468,-86 427.4468,-122"/>
<text text-anchor="middle" x="364" y="-99.8" font-family="Times,serif" font-size="14.00" fill="#000000">SettingsComponent</text>
</g>
<!-- SettingsComponent&#45;&gt;AppModule -->
<g id="edge10" class="edge">
<title>SettingsComponent&#45;&gt;AppModule</title>
<path fill="none" stroke="#000000" d="M364,-122.1061C364,-141.3391 364,-169 364,-169 364,-169 870.9841,-169 870.9841,-169"/>
<polygon fill="#000000" stroke="#000000" points="870.9842,-172.5001 880.9841,-169 870.9841,-165.5001 870.9842,-172.5001"/>
</g>
<!-- AppComponent  -->
<g id="node14" class="node">
<title>AppComponent </title>
<polygon fill="#80b1d3" stroke="#000000" points="977.439,-252 868.561,-252 868.561,-216 977.439,-216 977.439,-252"/>
<text text-anchor="middle" x="923" y="-229.8" font-family="Times,serif" font-size="14.00" fill="#000000">AppComponent </text>
</g>
<!-- AppModule&#45;&gt;AppComponent  -->
<g id="edge13" class="edge">
<title>AppModule&#45;&gt;AppComponent </title>
<path fill="none" stroke="#000000" stroke-dasharray="1,5" d="M923,-187.1061C923,-187.1061 923,-205.991 923,-205.991"/>
<polygon fill="#000000" stroke="#000000" points="919.5001,-205.9909 923,-215.991 926.5001,-205.991 919.5001,-205.9909"/>
</g>
<!-- AppRoutingModule -->
<g id="node12" class="node">
<title>AppRoutingModule</title>
<polygon fill="#8dd3c7" stroke="#000000" points="277.2744,-122 274.2744,-126 253.2744,-126 250.2744,-122 148.7256,-122 148.7256,-86 277.2744,-86 277.2744,-122"/>
<text text-anchor="middle" x="213" y="-99.8" font-family="Times,serif" font-size="14.00" fill="#000000">AppRoutingModule</text>
</g>
<!-- AppRoutingModule&#45;&gt;AppModule -->
<g id="edge11" class="edge">
<title>AppRoutingModule&#45;&gt;AppModule</title>
<path fill="none" stroke="#000000" d="M213,-122.2843C213,-143.3211 213,-175 213,-175 213,-175 871.237,-175 871.237,-175"/>
<polygon fill="#000000" stroke="#000000" points="871.237,-178.5001 881.237,-175 871.2369,-171.5001 871.237,-178.5001"/>
</g>
<!-- MaterialModule -->
<g id="node13" class="node">
<title>MaterialModule</title>
<polygon fill="#8dd3c7" stroke="#000000" points="130.4706,-122 127.4706,-126 106.4706,-126 103.4706,-122 23.5294,-122 23.5294,-86 130.4706,-86 130.4706,-122"/>
<text text-anchor="middle" x="77" y="-99.8" font-family="Times,serif" font-size="14.00" fill="#000000">MaterialModule</text>
</g>
<!-- MaterialModule&#45;&gt;AppModule -->
<g id="edge12" class="edge">
<title>MaterialModule&#45;&gt;AppModule</title>
<path fill="none" stroke="#000000" d="M77,-122.2479C77,-145.0179 77,-181 77,-181 77,-181 871.3353,-181 871.3353,-181"/>
<polygon fill="#000000" stroke="#000000" points="871.3353,-184.5001 881.3353,-181 871.3353,-177.5001 871.3353,-184.5001"/>
</g>
</g>
</svg>
